<?xml version="1.0" encoding="UTF-8" standalone="no"?>
<svg width="113px" height="90px" viewBox="0 0 113 90" version="1.1" xmlns="http://www.w3.org/2000/svg" xmlns:xlink="http://www.w3.org/1999/xlink">
    <!-- Generator: Sketch 40.1 (33804) - http://www.bohemiancoding.com/sketch -->
    <title>Group 3</title>
    <desc>Created with Sketch.</desc>
    <defs></defs>
    <g id="Page-1" stroke="none" stroke-width="1" fill="none" fill-rule="evenodd">
        <g id="Desktop" transform="translate(-616.000000, -513.000000)">
            <g id="Group-3" transform="translate(616.000000, 513.000000)">
                <g id="Group-2">
                    <path d="M12.4147235,78.7113 C11.4517235,77.769 8.88582354,75.6702 8.28732354,74.7801 C2.85942354,66.6801 4.41372354,59.2839 9.41952354,52.3296 C19.8577235,37.8387 53.4844235,25.4349 56.4274235,5.3082 C59.3695235,25.4349 92.9971235,37.8387 103.434424,52.3296 C108.982024,60.0327 110.363524,70.2099 102.633424,79.3548 L102.633424,85.8303 L106.851724,81.0279 C115.394524,70.9839 113.970724,59.9274 107.878624,51.4719 C96.4558235,35.6058 59.6476235,22.032 56.4274235,0 C53.2072235,22.032 16.4017235,35.6058 4.97622354,51.4719 C-0.663176459,59.2938 -2.30117646,68.0553 4.25532354,77.2767 C6.48732354,80.4195 9.39522354,84.051 12.4147235,86.3964 L12.4147235,78.7113 L12.4147235,78.7113 Z" id="Fill-6" fill="#D7B369"></path>
                    <path d="M16.4502,77.4 L99.1377,77.4 C100.7613,77.4 102.0906,78.7284 102.0906,80.3493 L102.0906,86.2236 C102.0906,87.8445 100.7613,89.1738 99.1377,89.1738 L16.4502,89.1738 C14.8293,89.1738 13.5,87.8445 13.5,86.2236 L13.5,80.3493 C13.5,78.7284 14.8257,77.4 16.4502,77.4 L16.4502,77.4 Z" id="Fill-9" fill="#D7B369"></path>
                    <path d="M17.1,88.1334 L17.1,79.8084 L18.099,79.8084 L18.099,83.3553 C18.1863,83.4678 18.3096,83.6019 18.468,83.7531 C18.5067,83.7954 18.5454,83.8341 18.5841,83.8692 C18.6192,83.9007 18.6579,83.9358 18.6966,83.9709 L18.6966,79.8084 L19.6947,79.8084 L19.6947,88.1334 L18.6966,88.1334 L18.6966,84.2418 C18.5904,84.1572 18.468,84.0447 18.3267,83.8971 C18.2817,83.8584 18.2394,83.8161 18.2043,83.7774 C18.1656,83.7423 18.1305,83.7036 18.099,83.6685 L18.099,88.1334 L17.1,88.1334 Z M20.6928,80.9541 L20.6928,79.8084 L23.2875,79.8084 L23.2875,88.1334 L22.293,88.1334 L22.293,83.4714 C22.2264,83.5353 22.1517,83.5947 22.0716,83.6541 C21.9906,83.7144 21.906,83.7702 21.8115,83.8269 L21.6918,83.8971 L21.6918,88.1334 L20.6928,88.1334 L20.6928,83.9709 C20.8548,83.9709 21.0204,83.9394 21.1923,83.8791 C21.3651,83.8161 21.5406,83.7351 21.7125,83.637 C21.8394,83.5704 21.9483,83.4966 22.0428,83.4192 C22.1346,83.3454 22.2192,83.2608 22.293,83.169 L22.293,82.818 C22.2264,82.8774 22.1517,82.9404 22.0716,82.9971 C21.9906,83.0565 21.906,83.1132 21.8115,83.169 C21.618,83.2815 21.4281,83.3661 21.2382,83.4291 C21.0483,83.493 20.8656,83.5245 20.6928,83.5245 L20.6928,81.7839 C20.8791,81.7317 21.0483,81.6642 21.1995,81.5877 C21.3471,81.5103 21.519,81.4113 21.7125,81.2853 C21.825,81.2115 21.9267,81.1341 22.0149,81.0567 C22.1067,80.9793 22.1976,80.8983 22.293,80.8065 L22.293,80.0154 L21.6918,80.0154 L21.6918,80.9541 L20.6928,80.9541 Z M21.8115,81.4536 C21.7584,81.4923 21.7197,81.5202 21.6918,81.5346 L21.6918,82.9935 C21.6918,82.9935 21.699,82.9899 21.7125,82.9827 C21.8394,82.9125 21.9483,82.8387 22.0428,82.7649 C22.1346,82.6875 22.2192,82.6029 22.293,82.5156 L22.293,81.0882 C22.1454,81.2214 21.9834,81.3411 21.8115,81.4536 L21.8115,81.4536 Z M25.5942,88.0632 C25.5627,88.0983 25.506,88.1298 25.425,88.1649 C25.344,88.2 25.2639,88.218 25.1757,88.218 C25.0704,88.218 24.9615,88.1964 24.8517,88.1541 C24.7428,88.1127 24.6447,88.056 24.5565,87.9786 C24.4692,87.9012 24.399,87.8103 24.3423,87.6978 C24.2865,87.588 24.2577,87.4584 24.2577,87.3144 C24.2577,87.0363 24.3315,86.8041 24.4827,86.625 C24.6303,86.4459 24.8202,86.3541 25.0452,86.3541 C25.1478,86.3541 25.2423,86.3685 25.3377,86.3964 C25.4286,86.4252 25.5024,86.4666 25.5555,86.5233 L25.6041,85.5315 L24.6267,85.5315 L24.2865,79.8084 L25.3377,79.8084 L25.6365,84.8673 L25.7841,81.6084 C25.8192,80.9505 25.9173,80.469 26.0793,80.1738 C26.2404,79.875 26.4375,79.7238 26.6625,79.7238 L27.2115,79.7238 L27.2115,79.8084 C27.1584,79.893 27.1197,79.974 27.099,80.0577 C27.0738,80.1423 27.0531,80.2341 27.0315,80.3394 C27.0144,80.4411 26.9964,80.5608 26.9829,80.6877 C26.9685,80.8173 26.9577,80.9154 26.9514,80.9829 L26.9514,81.0774 L26.4942,81.0774 C26.3889,81.0774 26.2791,81.1161 26.1738,81.1971 C26.0685,81.2781 26.0091,81.4365 25.9947,81.6714 L25.7553,86.5341 C25.8615,86.4144 26.0226,86.3541 26.2341,86.3541 C26.4591,86.3541 26.6346,86.4459 26.7543,86.625 C26.874,86.8041 26.9334,87.0363 26.9334,87.3144 C26.9334,87.4584 26.9055,87.588 26.8488,87.6978 C26.793,87.8103 26.7192,87.9012 26.6346,87.9786 C26.5464,88.056 26.4483,88.1127 26.3394,88.1541 C26.2305,88.1964 26.1216,88.218 26.0154,88.218 C25.9281,88.218 25.8435,88.2 25.7661,88.1649 C25.6851,88.1298 25.6293,88.0983 25.5942,88.0632 L25.5942,88.0632 Z M25.0173,87.5214 C25.1757,87.4728 25.3017,87.4017 25.3899,87.3072 C25.4817,87.2127 25.5303,87.0543 25.5447,86.8221 L25.5447,86.7204 C25.4394,86.6007 25.3017,86.5404 25.137,86.5404 C25.056,86.5404 24.9822,86.5755 24.9156,86.643 C24.849,86.706 24.8166,86.7978 24.8166,86.9067 L24.8166,87.6024 C24.8166,87.7221 24.849,87.8238 24.9156,87.9048 C24.9822,87.9894 25.0632,88.0317 25.1541,88.0317 C25.3305,88.0317 25.4745,87.9678 25.5942,87.8454 C25.7139,87.9678 25.8615,88.0317 26.0334,88.0317 C26.1279,88.0317 26.2089,87.9894 26.2728,87.9048 C26.3394,87.8238 26.3745,87.7221 26.3745,87.6024 L26.3745,86.9067 C26.3745,86.7978 26.3466,86.706 26.2935,86.643 C26.2404,86.5755 26.1738,86.5404 26.0928,86.5404 C26.0091,86.5404 25.9416,86.5584 25.8966,86.5899 C25.8471,86.6214 25.7976,86.6745 25.7454,86.7519 L25.7454,86.9805 C25.7454,87.1317 25.7697,87.2478 25.8192,87.3279 C25.8678,87.4089 25.974,87.4728 26.1351,87.5214 L26.1351,87.7077 L25.0173,87.7077 L25.0173,87.5214 Z M27.981,88.1334 L27.981,79.8084 L28.9791,79.8084 L28.9791,82.5678 C29.0322,82.4976 29.0889,82.4346 29.1483,82.3779 C29.2077,82.3221 29.2716,82.269 29.3382,82.2132 C29.3976,82.1709 29.4786,82.125 29.5767,82.0755 L29.5767,79.8084 L30.5757,79.8084 L30.5757,81.9954 C30.5298,81.9954 30.4632,82.0017 30.3714,82.0197 C30.2805,82.0377 30.1851,82.062 30.0762,82.0935 C29.9709,82.125 29.862,82.1637 29.7531,82.2132 C29.6442,82.2627 29.5452,82.3149 29.4579,82.3779 C29.3454,82.4553 29.2428,82.5471 29.1555,82.6488 C29.0637,82.7541 29.0178,82.863 29.0178,82.9827 C29.0178,83.0988 29.0637,83.2113 29.1555,83.3166 C29.2428,83.4192 29.3454,83.5101 29.4579,83.5875 C29.5452,83.6478 29.6442,83.7036 29.7531,83.7531 C29.862,83.8017 29.9709,83.8404 30.0762,83.8728 C30.1851,83.9043 30.2805,83.9286 30.3714,83.9466 C30.4632,83.9637 30.5298,83.9709 30.5757,83.9709 L30.5757,88.1334 L29.5767,88.1334 L29.5767,83.8971 C29.5002,83.8656 29.4192,83.8161 29.3382,83.7531 C29.2041,83.6541 29.0853,83.5416 28.9791,83.4084 L28.9791,88.1334 L27.981,88.1334 Z M34.2108,84.2418 C34.2108,84.681 34.1613,85.0815 34.0596,85.4505 C33.9615,85.8168 33.8418,86.1579 33.7014,86.4702 C33.6132,86.6502 33.5286,86.8149 33.4476,86.9697 C33.3639,87.1209 33.2793,87.2685 33.1911,87.4053 C33.1002,87.5673 33.012,87.7149 32.931,87.8517 C32.8536,87.993 32.7978,88.1127 32.7726,88.218 L32.544,88.218 C32.5512,88.1613 32.5548,88.1055 32.5584,88.0416 C32.562,87.9786 32.5584,87.8976 32.5512,87.8031 C32.5512,87.669 32.5341,87.525 32.4918,87.363 C32.4531,87.2055 32.4036,87.0435 32.3478,86.8752 C32.2911,86.7096 32.2317,86.5404 32.1651,86.3757 C32.0976,86.2101 32.0346,86.0454 31.9752,85.887 C31.8483,85.5738 31.743,85.2291 31.6548,84.8565 C31.5666,84.4803 31.5252,84.0978 31.5252,83.7 C31.5252,83.2644 31.5738,82.8603 31.6764,82.494 C31.7745,82.125 31.8942,81.7839 32.0346,81.4752 C32.1192,81.2916 32.2065,81.1269 32.2875,80.9721 C32.3721,80.8209 32.4567,80.6769 32.544,80.5365 C32.6358,80.3781 32.724,80.2269 32.8014,80.0892 C32.8815,79.9488 32.9346,79.8291 32.9625,79.7238 L33.1911,79.7238 C33.1839,79.7805 33.1803,79.8399 33.1767,79.9029 C33.174,79.9632 33.1767,80.0442 33.1803,80.1423 C33.1803,80.2728 33.2019,80.4204 33.2406,80.5779 C33.2829,80.7363 33.3279,80.9019 33.3846,81.0666 C33.444,81.2322 33.5043,81.4005 33.5709,81.5733 C33.6375,81.7416 33.7014,81.9036 33.7608,82.0548 C33.8877,82.368 33.993,82.7127 34.0803,83.0853 C34.1649,83.4615 34.2108,83.8476 34.2108,84.2418 L34.2108,84.2418 Z M32.6214,82.0548 C32.5692,81.8964 32.5233,81.738 32.4882,81.5841 C32.4531,81.4257 32.4216,81.2952 32.3928,81.1935 C32.3577,81.2529 32.3298,81.3168 32.3019,81.3798 C32.2767,81.4428 32.2488,81.5031 32.2245,81.5553 C32.2029,81.6192 32.1858,81.7065 32.1714,81.8226 C32.1615,81.9351 32.1543,82.0512 32.1543,82.1709 C32.1543,82.4841 32.2029,82.8315 32.2983,83.2221 C32.3928,83.6127 32.499,83.9916 32.6115,84.3678 C32.6781,84.618 32.7627,84.8709 32.8572,85.131 C32.9517,85.3911 33.0399,85.644 33.1101,85.887 C33.1596,86.0454 33.2019,86.2029 33.2406,86.3613 C33.2829,86.5161 33.3108,86.6502 33.3315,86.7627 C33.399,86.6286 33.4584,86.5053 33.5115,86.3865 C33.5322,86.3226 33.5466,86.2353 33.5601,86.1228 C33.5745,86.0067 33.5817,85.8906 33.5817,85.7709 C33.5817,85.4613 33.5322,85.1103 33.4377,84.7197 C33.3387,84.3327 33.2334,83.9502 33.1209,83.5767 C33.0543,83.3274 32.9733,83.0709 32.8779,82.8108 C32.7798,82.5507 32.6952,82.2978 32.6214,82.0548 L32.6214,82.0548 Z M35.1567,88.1334 L35.1567,79.8084 L37.7541,79.8084 L37.7541,81.9954 C37.7055,81.9954 37.6389,82.0017 37.5471,82.0197 C37.4589,82.0377 37.3608,82.062 37.2555,82.0935 C37.1466,82.125 37.0404,82.1637 36.9279,82.2132 C36.819,82.2627 36.7209,82.3149 36.6363,82.3779 C36.5202,82.4553 36.4221,82.5471 36.3303,82.6488 C36.243,82.7541 36.1971,82.863 36.1971,82.9827 C36.1971,83.0988 36.243,83.2113 36.3303,83.3166 C36.4221,83.4192 36.5202,83.5101 36.6363,83.5875 C36.7209,83.6478 36.819,83.7036 36.9279,83.7531 C37.0404,83.8017 37.1466,83.8404 37.2555,83.8728 C37.3608,83.9043 37.4589,83.9286 37.5471,83.9466 C37.6389,83.9637 37.7055,83.9709 37.7541,83.9709 L37.7541,88.1334 L35.1567,88.1334 Z M36.5166,83.7531 C36.3834,83.6541 36.2637,83.5416 36.1548,83.4084 L36.1548,87.9255 L36.756,87.9255 L36.756,83.8971 C36.675,83.8656 36.594,83.8161 36.5166,83.7531 L36.5166,83.7531 Z M36.5166,82.2132 C36.5769,82.1709 36.6543,82.125 36.756,82.0755 L36.756,80.0154 L36.1548,80.0154 L36.1548,82.5678 C36.2115,82.4976 36.2673,82.4346 36.3267,82.3779 C36.387,82.3221 36.45,82.269 36.5166,82.2132 L36.5166,82.2132 Z M41.3865,84.2418 C41.3865,84.681 41.337,85.0815 41.2389,85.4505 C41.1363,85.8168 41.0166,86.1579 40.8762,86.4702 C40.7916,86.6502 40.7079,86.8149 40.6233,86.9697 C40.5387,87.1209 40.4541,87.2685 40.3704,87.4053 C40.275,87.5673 40.1877,87.7149 40.1103,87.8517 C40.0293,87.993 39.9762,88.1127 39.9483,88.218 L39.7197,88.218 C39.7269,88.1613 39.7305,88.1055 39.7341,88.0416 C39.7377,87.9786 39.7377,87.8976 39.7305,87.8031 C39.7305,87.669 39.7089,87.525 39.6702,87.363 C39.6315,87.2055 39.5829,87.0435 39.5262,86.8752 C39.4704,86.7096 39.4065,86.5404 39.3399,86.3757 C39.2733,86.2101 39.2103,86.0454 39.15,85.887 C39.024,85.5738 38.9178,85.2291 38.8305,84.8565 C38.7459,84.4803 38.7036,84.0978 38.7036,83.7 C38.7036,83.2644 38.7531,82.8603 38.8512,82.494 C38.9502,82.125 39.0726,81.7839 39.2103,81.4752 C39.2976,81.2916 39.3822,81.1269 39.4668,80.9721 C39.5478,80.8209 39.6315,80.6769 39.7197,80.5365 C39.8151,80.3781 39.8988,80.2269 39.9798,80.0892 C40.0608,79.9488 40.1139,79.8291 40.1382,79.7238 L40.3704,79.7238 C40.3632,79.7805 40.356,79.8399 40.3524,79.9029 C40.3488,79.9632 40.3524,80.0442 40.3596,80.1423 C40.3596,80.2728 40.3767,80.4204 40.419,80.5779 C40.4577,80.7363 40.5072,80.9019 40.5639,81.0666 C40.6197,81.2322 40.6827,81.4005 40.7502,81.5733 C40.8132,81.7416 40.8762,81.9036 40.9365,82.0548 C41.0625,82.368 41.1714,82.7127 41.256,83.0853 C41.3442,83.4615 41.3865,83.8476 41.3865,84.2418 L41.3865,84.2418 Z M39.8007,82.0548 C39.7476,81.8964 39.7017,81.738 39.6639,81.5841 C39.6279,81.4257 39.5964,81.2952 39.5685,81.1935 C39.537,81.2529 39.5055,81.3168 39.4803,81.3798 C39.4524,81.4428 39.4281,81.5031 39.4002,81.5553 C39.3786,81.6192 39.3651,81.7065 39.3507,81.8226 C39.3363,81.9351 39.3291,82.0512 39.3291,82.1709 C39.3291,82.4841 39.3786,82.8315 39.474,83.2221 C39.5721,83.6127 39.6774,83.9916 39.7899,84.3678 C39.8565,84.618 39.9375,84.8709 40.0329,85.131 C40.131,85.3911 40.2156,85.644 40.2894,85.887 C40.3353,86.0454 40.3767,86.2029 40.419,86.3613 C40.4577,86.5161 40.4901,86.6502 40.5072,86.7627 C40.5738,86.6286 40.6341,86.5053 40.6863,86.3865 C40.7079,86.3226 40.725,86.2353 40.7394,86.1228 C40.7502,86.0067 40.7565,85.8906 40.7565,85.7709 C40.7565,85.4613 40.7115,85.1103 40.6125,84.7197 C40.518,84.3327 40.4127,83.9502 40.3002,83.5767 C40.2327,83.3274 40.1517,83.0709 40.0536,82.8108 C39.9591,82.5507 39.8745,82.2978 39.8007,82.0548 L39.8007,82.0548 Z M42.1839,84.1779 L43.8327,84.1779 L43.8327,83.763 L42.1839,83.763 L42.1839,84.1779 Z M44.6805,88.1334 L44.6805,79.8084 L47.2752,79.8084 L47.2752,81.9954 C47.2293,81.9954 47.1627,82.0017 47.0709,82.0197 C46.9827,82.0377 46.8846,82.062 46.7757,82.0935 C46.6704,82.125 46.5615,82.1637 46.4517,82.2132 C46.3428,82.2627 46.2447,82.3149 46.1565,82.3779 C46.044,82.4553 45.9423,82.5471 45.8541,82.6488 C45.7632,82.7541 45.7173,82.863 45.7173,82.9827 C45.7173,83.0988 45.7632,83.2113 45.8541,83.3166 C45.9423,83.4192 46.044,83.5101 46.1565,83.5875 C46.2447,83.6478 46.3428,83.7036 46.4517,83.7531 C46.5615,83.8017 46.6704,83.8404 46.7757,83.8728 C46.8846,83.9043 46.9827,83.9286 47.0709,83.9466 C47.1627,83.9637 47.2293,83.9709 47.2752,83.9709 L47.2752,88.1334 L44.6805,88.1334 Z M46.0377,83.7531 C45.9036,83.6541 45.7839,83.5416 45.6786,83.4084 L45.6786,87.9255 L46.2762,87.9255 L46.2762,83.8971 C46.1988,83.8656 46.1178,83.8161 46.0377,83.7531 L46.0377,83.7531 Z M46.0377,82.2132 C46.0971,82.1709 46.1781,82.125 46.2762,82.0755 L46.2762,80.0154 L45.6786,80.0154 L45.6786,82.5678 C45.7317,82.4976 45.7875,82.4346 45.8478,82.3779 C45.9072,82.3221 45.9702,82.269 46.0377,82.2132 L46.0377,82.2132 Z M48.2733,88.1334 L48.2733,79.8084 L49.2714,79.8084 L49.2714,83.9709 C49.3065,83.9358 49.3416,83.9007 49.3803,83.8692 C49.4226,83.8341 49.4613,83.7954 49.5036,83.7531 C49.5738,83.6757 49.6404,83.6091 49.7007,83.5452 C49.7601,83.4822 49.8204,83.4192 49.8726,83.3553 L49.8726,79.8084 L50.8716,79.8084 L50.8716,88.1334 L49.8726,88.1334 L49.8726,83.6685 L49.6404,83.8971 C49.5666,83.9673 49.5036,84.0303 49.4442,84.087 C49.3803,84.1428 49.3245,84.1923 49.2714,84.2418 L49.2714,88.1334 L48.2733,88.1334 Z M51.8697,88.1334 L51.8697,79.8084 L54.4644,79.8084 L54.4644,83.7738 C54.3447,83.7738 54.1827,83.7918 53.9829,83.8269 C53.7858,83.862 53.6067,83.925 53.4447,84.024 C53.3115,84.1077 53.199,84.1995 53.1072,84.2976 C53.0127,84.4002 52.9317,84.5019 52.8651,84.6072 L52.8651,88.1334 L51.8697,88.1334 Z M53.4654,83.7846 L53.4654,80.0154 L52.8651,80.0154 L52.8651,84.2733 C52.9317,84.1959 53.0055,84.1221 53.0793,84.0483 C53.1567,83.9781 53.244,83.9079 53.3466,83.8476 L53.4654,83.7846 Z M58.0959,84.2418 C58.0959,84.681 58.0464,85.0815 57.9483,85.4505 C57.8466,85.8168 57.7269,86.1579 57.5865,86.4702 C57.5019,86.6502 57.4173,86.8149 57.3327,86.9697 C57.249,87.1209 57.1644,87.2685 57.0798,87.4053 C56.9853,87.5673 56.9007,87.7149 56.8197,87.8517 C56.7387,87.993 56.6865,88.1127 56.6577,88.218 L56.4291,88.218 C56.4363,88.1613 56.4399,88.1055 56.4435,88.0416 C56.4471,87.9786 56.4471,87.8976 56.4399,87.8031 C56.4399,87.669 56.4192,87.525 56.3805,87.363 C56.3418,87.2055 56.2923,87.0435 56.2365,86.8752 C56.1798,86.7096 56.1168,86.5404 56.0502,86.3757 C55.9827,86.2101 55.9197,86.0454 55.8603,85.887 C55.7334,85.5738 55.6281,85.2291 55.5399,84.8565 C55.4553,84.4803 55.4139,84.0978 55.4139,83.7 C55.4139,83.2644 55.4625,82.8603 55.5615,82.494 C55.6632,82.125 55.7829,81.7839 55.9197,81.4752 C56.0079,81.2916 56.0916,81.1269 56.1762,80.9721 C56.2572,80.8209 56.3454,80.6769 56.4291,80.5365 C56.5245,80.3781 56.6091,80.2269 56.6901,80.0892 C56.7702,79.9488 56.8233,79.8291 56.8476,79.7238 L57.0798,79.7238 C57.0726,79.7805 57.0654,79.8399 57.0627,79.9029 C57.0627,79.9632 57.0627,80.0442 57.069,80.1423 C57.069,80.2728 57.0906,80.4204 57.1293,80.5779 C57.168,80.7363 57.2166,80.9019 57.2733,81.0666 C57.3291,81.2322 57.393,81.4005 57.4596,81.5733 C57.5226,81.7416 57.5865,81.9036 57.6459,82.0548 C57.7728,82.368 57.8817,82.7127 57.9654,83.0853 C58.0536,83.4615 58.0959,83.8476 58.0959,84.2418 L58.0959,84.2418 Z M56.5101,82.0548 C56.4579,81.8964 56.412,81.738 56.3733,81.5841 C56.3382,81.4257 56.3067,81.2952 56.2815,81.1935 C56.2464,81.2529 56.2185,81.3168 56.1906,81.3798 C56.1627,81.4428 56.1375,81.5031 56.1096,81.5553 C56.0916,81.6192 56.0745,81.7065 56.0601,81.8226 C56.0466,81.9351 56.0394,82.0512 56.0394,82.1709 C56.0394,82.4841 56.0889,82.8315 56.187,83.2221 C56.2815,83.6127 56.3877,83.9916 56.5002,84.3678 C56.5668,84.618 56.6478,84.8709 56.7459,85.131 C56.8404,85.3911 56.925,85.644 56.9988,85.887 C57.0447,86.0454 57.0906,86.2029 57.1293,86.3613 C57.168,86.5161 57.1995,86.6502 57.2166,86.7627 C57.2841,86.6286 57.3435,86.5053 57.4002,86.3865 C57.4173,86.3226 57.4353,86.2353 57.4488,86.1228 C57.4596,86.0067 57.4668,85.8906 57.4668,85.7709 C57.4668,85.4613 57.4209,85.1103 57.3228,84.7197 C57.2274,84.3327 57.1221,83.9502 57.0096,83.5767 C56.943,83.3274 56.862,83.0709 56.7639,82.8108 C56.6685,82.5507 56.5839,82.2978 56.5101,82.0548 L56.5101,82.0548 Z M59.0454,88.1334 L59.0454,79.8084 L61.6401,79.8084 L61.6401,81.6822 L60.6411,81.6822 L60.6411,80.0154 L60.0435,80.0154 L60.0435,82.899 C60.1353,83.0394 60.2406,83.169 60.3567,83.2887 C60.4728,83.412 60.6096,83.5209 60.7608,83.619 C60.9156,83.7144 61.074,83.799 61.2351,83.8692 C61.4007,83.9358 61.5339,83.9709 61.6401,83.9709 L61.6401,88.1334 L59.0454,88.1334 Z M60.6411,83.7846 C60.5214,83.7 60.4125,83.6127 60.3144,83.5137 C60.2127,83.4156 60.1245,83.3202 60.0435,83.2221 L60.0435,87.9255 L60.6411,87.9255 L60.6411,83.7846 Z M62.6382,88.1334 L62.6382,79.8084 L63.6363,79.8084 L63.6363,83.3553 C63.7245,83.4678 63.8478,83.6019 64.0053,83.7531 C64.0476,83.7954 64.0827,83.8341 64.1214,83.8692 C64.1565,83.9007 64.1952,83.9358 64.2339,83.9709 L64.2339,79.8084 L65.2329,79.8084 L65.2329,88.1334 L64.2339,88.1334 L64.2339,84.2418 C64.1286,84.1572 64.0053,84.0447 63.8649,83.8971 C63.819,83.8584 63.7767,83.8161 63.7416,83.7774 C63.7065,83.7423 63.6714,83.7036 63.6363,83.6685 L63.6363,88.1334 L62.6382,88.1334 Z M66.231,88.1334 L66.231,79.8084 L67.2291,79.8084 L67.2291,83.9709 C67.2651,83.9358 67.3002,83.9007 67.3416,83.8692 C67.3803,83.8341 67.419,83.7954 67.4613,83.7531 C67.5315,83.6757 67.599,83.6091 67.6584,83.5452 C67.7178,83.4822 67.7745,83.4192 67.8303,83.3553 L67.8303,79.8084 L68.8293,79.8084 L68.8293,88.1334 L67.8303,88.1334 L67.8303,83.6685 L67.599,83.8971 C67.5279,83.9673 67.4613,84.0303 67.4019,84.087 C67.3416,84.1428 67.2822,84.1923 67.2291,84.2418 L67.2291,88.1334 L66.231,88.1334 Z M71.424,88.1334 L71.424,84.6072 C71.3502,84.5019 71.2656,84.4002 71.1738,84.2976 C71.0793,84.1995 70.9704,84.1077 70.8435,84.024 C70.6851,83.925 70.506,83.862 70.3053,83.8269 C70.1055,83.7918 69.9471,83.7738 69.8274,83.7738 L69.8274,79.8084 L70.8228,79.8084 L70.8228,83.7846 L70.9452,83.8476 C71.1315,83.9637 71.2899,84.1077 71.424,84.2733 L71.424,79.8084 L72.4221,79.8084 L72.4221,88.1334 L71.424,88.1334 Z M73.4202,80.9541 L73.4202,79.8084 L76.0149,79.8084 L76.0149,88.1334 L75.0168,88.1334 L75.0168,83.4714 C74.9502,83.5353 74.8764,83.5947 74.799,83.6541 C74.718,83.7144 74.6298,83.7702 74.5389,83.8269 L74.4192,83.8971 L74.4192,88.1334 L73.4202,88.1334 L73.4202,83.9709 C73.5786,83.9709 73.7442,83.9394 73.9197,83.8791 C74.0916,83.8161 74.2644,83.7351 74.4363,83.637 C74.5632,83.5704 74.6757,83.4966 74.7666,83.4192 C74.862,83.3454 74.943,83.2608 75.0168,83.169 L75.0168,82.818 C74.9502,82.8774 74.8764,82.9404 74.799,82.9971 C74.718,83.0565 74.6298,83.1132 74.5389,83.169 C74.3454,83.2815 74.1519,83.3661 73.962,83.4291 C73.7757,83.493 73.593,83.5245 73.4202,83.5245 L73.4202,81.7839 C73.6065,81.7317 73.7757,81.6642 73.9233,81.5877 C74.0745,81.5103 74.2428,81.4113 74.4363,81.2853 C74.5488,81.2115 74.6514,81.1341 74.7423,81.0567 C74.8305,80.9793 74.9214,80.8983 75.0168,80.8065 L75.0168,80.0154 L74.4192,80.0154 L74.4192,80.9541 L73.4202,80.9541 Z M74.5389,81.4536 C74.4858,81.4923 74.4435,81.5202 74.4192,81.5346 L74.4192,82.9935 C74.4192,82.9935 74.4264,82.9899 74.4363,82.9827 C74.5632,82.9125 74.6757,82.8387 74.7666,82.7649 C74.862,82.6875 74.943,82.6029 75.0168,82.5156 L75.0168,81.0882 C74.8692,81.2214 74.7108,81.3411 74.5389,81.4536 L74.5389,81.4536 Z M82.3041,88.1334 L82.3041,86.481 C82.2096,86.5755 82.1043,86.6601 81.9846,86.7303 C81.8649,86.7978 81.7416,86.8329 81.6156,86.8329 C81.4221,86.8329 81.2565,86.787 81.1197,86.6916 C80.9829,86.6007 80.8704,86.4774 80.775,86.3298 C80.6841,86.1786 80.6139,86.0103 80.5716,85.8204 C80.5293,85.6269 80.5077,85.437 80.5077,85.2399 C80.5077,84.8817 80.5401,84.5649 80.6031,84.294 C80.6661,84.024 80.7507,83.7738 80.8596,83.5488 C80.9721,83.3238 81.099,83.1132 81.2466,82.9161 C81.3906,82.7154 81.549,82.5156 81.7137,82.3041 C81.7416,82.2654 81.7803,82.2096 81.8298,82.1466 C81.8793,82.0791 81.9279,82.0053 81.9774,81.9216 C82.0305,81.837 82.0728,81.7488 82.1079,81.6543 C82.1466,81.5625 82.1637,81.468 82.1637,81.369 C82.1637,81.3132 82.1565,81.2502 82.1394,81.1827 C82.1214,81.1125 82.0971,81.0495 82.0584,80.9892 C82.0233,80.9298 81.9774,80.8803 81.9279,80.838 C81.8793,80.7966 81.8226,80.775 81.7632,80.775 C81.7245,80.7966 81.7002,80.8452 81.6894,80.9226 C81.6786,80.9964 81.675,81.0702 81.675,81.1404 C81.675,81.2853 81.6822,81.4257 81.693,81.5625 C81.7065,81.6966 81.7209,81.8154 81.7353,81.9216 L81.7353,81.9954 L80.6769,81.9954 L80.6769,81.9216 C80.7048,81.756 80.7435,81.5877 80.7966,81.4221 C80.8488,81.2529 80.9154,81.1053 80.9901,80.9793 C81.0666,80.8488 81.1584,80.7435 81.2601,80.6625 C81.3627,80.5779 81.4815,80.5365 81.6156,80.5365 C81.8091,80.5365 81.9567,80.5779 82.0656,80.6661 C82.1709,80.7543 82.2519,80.8632 82.3041,80.9928 L82.3041,79.8084 L83.3031,79.8084 L83.3031,80.9928 C83.349,80.8632 83.4264,80.7543 83.5353,80.6661 C83.6478,80.5779 83.799,80.5365 83.9916,80.5365 C84.1221,80.5365 84.2418,80.5779 84.3435,80.6625 C84.4488,80.7435 84.537,80.8488 84.6144,80.9793 C84.6918,81.1053 84.7548,81.2529 84.8043,81.4221 C84.8529,81.5877 84.8952,81.756 84.9267,81.9216 L84.9267,81.9954 L83.8692,81.9954 L83.8692,81.9216 C83.8827,81.8154 83.8971,81.6966 83.9115,81.5625 C83.925,81.4257 83.9322,81.2853 83.9322,81.1404 C83.9322,81.0702 83.925,80.9964 83.9151,80.9226 C83.9043,80.8452 83.8791,80.7966 83.8404,80.775 C83.781,80.775 83.7252,80.7966 83.6757,80.838 C83.6262,80.8803 83.5839,80.9298 83.5452,80.9892 C83.5101,81.0495 83.4822,81.1125 83.4678,81.1827 C83.4507,81.2502 83.4399,81.3132 83.4399,81.369 C83.4399,81.468 83.4615,81.5625 83.4966,81.6543 C83.5317,81.7488 83.5767,81.837 83.6262,81.9216 C83.6757,82.0053 83.7252,82.0791 83.7774,82.1466 C83.8269,82.2096 83.8656,82.2654 83.8899,82.3041 C84.0591,82.5156 84.2139,82.7154 84.3615,82.9161 C84.5055,83.1132 84.6351,83.3238 84.744,83.5488 C84.8529,83.7738 84.9411,84.024 85.0041,84.294 C85.068,84.5649 85.0995,84.8817 85.0995,85.2399 C85.0995,85.437 85.0779,85.6269 85.0329,85.8204 C84.9906,86.0103 84.924,86.1786 84.8286,86.3298 C84.7377,86.4774 84.618,86.6007 84.4803,86.6916 C84.3399,86.787 84.1779,86.8329 83.9916,86.8329 C83.8584,86.8329 83.7315,86.7978 83.6154,86.7303 C83.5002,86.6601 83.394,86.5755 83.3031,86.481 L83.3031,88.1334 L82.3041,88.1334 Z M83.619,82.3572 C83.556,82.2339 83.493,82.125 83.4363,82.0305 C83.3805,81.9351 83.3346,81.8406 83.3031,81.7452 L83.3031,86.1894 C83.3769,86.2632 83.4471,86.3334 83.5209,86.3928 C83.5947,86.4495 83.6721,86.481 83.7495,86.481 C83.8089,86.481 83.8584,86.4315 83.8971,86.3334 C83.9322,86.238 83.9565,86.1156 83.9709,85.9716 C83.9853,85.824 83.9916,85.6692 83.9952,85.5072 C83.9988,85.3416 83.9988,85.194 83.9988,85.0536 C83.9988,84.6531 83.9853,84.2805 83.9502,83.9394 C83.9178,83.6019 83.8764,83.2851 83.8197,82.9935 C83.8089,82.8954 83.781,82.7865 83.7351,82.6668 C83.6928,82.5435 83.6541,82.4418 83.6226,82.3572 L83.619,82.3572 Z M81.8541,86.481 C81.9279,86.481 82.0017,86.4495 82.0791,86.3928 C82.1565,86.3334 82.2303,86.2632 82.3041,86.1894 L82.3041,81.7452 C82.269,81.8406 82.224,81.9351 82.1637,82.0305 C82.1043,82.125 82.044,82.2339 81.9846,82.3572 C81.9495,82.4418 81.9144,82.5435 81.8685,82.6668 C81.8262,82.7865 81.7983,82.8954 81.7839,82.9935 C81.7317,83.2851 81.6894,83.6019 81.6543,83.9394 C81.6228,84.2805 81.6048,84.6531 81.6048,85.0536 C81.6048,85.194 81.6048,85.3416 81.6084,85.5072 C81.612,85.6692 81.6228,85.824 81.6327,85.9716 C81.6471,86.1156 81.6714,86.238 81.7101,86.3334 C81.7452,86.4315 81.7947,86.481 81.8541,86.481 L81.8541,86.481 Z M86.0976,88.1334 L87.0966,88.1334 L87.0966,79.8084 L86.0976,79.8084 L86.0976,88.1334 Z M86.625,79.1613 L86.625,79.2459 L86.1966,79.2459 L85.8267,78.381 L85.8267,78.3 L86.256,78.3 L86.625,79.1613 Z M87.525,79.1613 L87.525,79.2459 L87.0966,79.2459 L86.7267,78.381 L86.7267,78.3 L87.156,78.3 L87.525,79.1613 Z M88.0947,88.1334 L88.0947,79.8084 L90.6894,79.8084 L90.6894,83.7738 C90.5697,83.7738 90.4077,83.7918 90.2079,83.8269 C90.0108,83.862 89.8317,83.925 89.6697,84.024 C89.5365,84.1077 89.424,84.1995 89.3322,84.2976 C89.2377,84.4002 89.1567,84.5019 89.0901,84.6072 L89.0901,88.1334 L88.0947,88.1334 Z M89.6904,83.7846 L89.6904,80.0154 L89.0901,80.0154 L89.0901,84.2733 C89.1567,84.1959 89.2305,84.1221 89.3043,84.0483 C89.3817,83.9781 89.469,83.9079 89.5716,83.8476 L89.6904,83.7846 Z M91.6875,88.1334 L91.6875,83.9709 C91.7928,83.9709 91.9269,83.9358 92.0916,83.8692 C92.2536,83.799 92.412,83.7144 92.5668,83.619 C92.718,83.5209 92.8512,83.412 92.9709,83.2887 C93.087,83.169 93.1887,83.0394 93.2841,82.899 L93.2841,80.0154 L92.6865,80.0154 L92.6865,81.6822 L91.6875,81.6822 L91.6875,79.8084 L94.2822,79.8084 L94.2822,83.763 C94.3137,83.7279 94.3524,83.6928 94.3911,83.6577 C94.4334,83.6226 94.4721,83.5875 94.5108,83.5452 C94.5846,83.4678 94.6512,83.3976 94.7115,83.3382 C94.7709,83.2752 94.8267,83.2113 94.8798,83.1483 L94.8798,79.8084 L95.8779,79.8084 L95.8779,88.1334 L94.8798,88.1334 L94.8798,83.4615 C94.8483,83.4966 94.8096,83.5317 94.7709,83.5704 C94.7322,83.6091 94.6899,83.6478 94.6512,83.6892 C94.5774,83.7603 94.5108,83.8233 94.4514,83.8791 C94.3911,83.9322 94.3353,83.9853 94.2822,84.0339 L94.2822,88.1334 L93.2841,88.1334 L93.2841,83.2221 C93.1113,83.4291 92.9115,83.619 92.6865,83.7846 L92.6865,88.1334 L91.6875,88.1334 Z M96.8769,80.9541 L96.8769,79.8084 L99.4716,79.8084 L99.4716,88.1334 L98.4726,88.1334 L98.4726,83.4714 C98.406,83.5353 98.3358,83.5947 98.2548,83.6541 C98.1738,83.7144 98.0901,83.7702 97.9947,83.8269 L97.875,83.8971 L97.875,88.1334 L96.8769,88.1334 L96.8769,83.9709 C97.0389,83.9709 97.2036,83.9394 97.3764,83.8791 C97.5483,83.8161 97.7238,83.7351 97.8966,83.637 C98.0226,83.5704 98.1315,83.4966 98.2233,83.4192 C98.3178,83.3454 98.4024,83.2608 98.4726,83.169 L98.4726,82.818 C98.406,82.8774 98.3358,82.9404 98.2548,82.9971 C98.1738,83.0565 98.0901,83.1132 97.9947,83.169 C97.8012,83.2815 97.6113,83.3661 97.4214,83.4291 C97.2315,83.493 97.0488,83.5245 96.8769,83.5245 L96.8769,81.7839 C97.0632,81.7317 97.2315,81.6642 97.3791,81.5877 C97.5303,81.5103 97.7031,81.4113 97.8966,81.2853 C98.0091,81.2115 98.1108,81.1341 98.199,81.0567 C98.2899,80.9793 98.3817,80.8983 98.4726,80.8065 L98.4726,80.0154 L97.875,80.0154 L97.875,80.9541 L96.8769,80.9541 Z M97.9947,81.4536 C97.9416,81.4923 97.9029,81.5202 97.875,81.5346 L97.875,82.9935 C97.875,82.9935 97.8822,82.9899 97.8966,82.9827 C98.0226,82.9125 98.1315,82.8387 98.2233,82.7649 C98.3178,82.6875 98.4024,82.6029 98.4726,82.5156 L98.4726,81.0882 C98.3286,81.2214 98.1666,81.3411 97.9947,81.4536 L97.9947,81.4536 Z" id="Fill-10" fill="#FFFFFF"></path>
                    <g id="Group" transform="translate(17.100000, 42.300000)">
                        <g id="Page-1">
                            <path d="M22.9078391,7.5923469 C23.0972826,8.02312497 23.305945,8.44346993 23.5365719,8.8525581 C23.3388917,8.42397647 23.1302293,8.00418062 22.9078391,7.5923469" id="Fill-1" fill="#70BE44"></path>
                            <polygon id="Fill-3" fill="#703642" points="6.90960895 -2.74555816e-05 4.71316242 -2.74555816e-05 3.98092206 -2.74555816e-05 0.274418538 -2.74555816e-05 0.274418538 32.351708 4.71316242 32.351708 4.71316242 1.52705199 6.90960895 1.52705199 6.90960895 32.351708 11.3483528 32.351708 11.3483528 -2.74555816e-05 7.64184931 -2.74555816e-05"></polygon>
                            <path d="M35.8120997,9.91319467 C37.3597709,9.46100124 38.9428597,9.42668176 38.9587839,9.42640721 L38.9488999,8.86960801 L38.9488999,8.23667449e-05 L34.647434,8.23667449e-05 L34.647434,9.1524005 C33.7493619,9.51316685 32.9226743,10.0337247 32.4051366,10.7785946 L32.4051366,8.23667449e-05 L28.0122435,8.23667449e-05 L28.0122435,32.3518179 L32.4051366,32.3518179 L32.4051366,14.3390344 C32.9226743,15.0789624 33.7493619,15.5921072 34.647434,15.9438132 L34.647434,32.3518179 L38.9488999,32.3518179 L38.9488999,16.1950317 L38.9527437,15.6269758 C38.937094,15.6269758 37.3540052,15.6091296 35.8068832,15.1728604 C33.9140954,14.639673 32.9542482,13.7608199 32.9542482,12.561011 C32.9542482,11.3584565 33.9157427,10.4675229 35.8120997,9.91319467" id="Fill-6" fill="#703642"></path>
                            <path d="M48.9092633,15.306981 C48.9087142,15.306981 48.9081651,15.3072555 48.9081651,15.3072555 C48.0680243,15.5708291 47.2523189,15.9359883 46.6211151,16.441171 L46.6211151,1.52702454 L48.9092633,1.52702454 L48.9092633,15.306981 Z M48.9092633,-5.49111633e-05 L46.6211151,-5.49111633e-05 L45.7288087,-5.49111633e-05 L42.1826458,-5.49111633e-05 L42.1826458,32.3516806 L46.6211151,32.3516806 L46.6211151,21.2431523 L46.6211151,18.9863035 L46.6211151,18.7062565 C46.7004617,17.5750866 47.7767205,16.7294546 49.8196904,16.1995619 C51.5546086,15.7465448 53.3309847,15.7108526 53.3477326,15.7108526 L53.3422415,15.4664979 L53.3477326,15.4664979 L53.3477326,-5.49111633e-05 L49.389736,-5.49111633e-05 L48.9092633,-5.49111633e-05 Z" id="Fill-8" fill="#703642"></path>
                            <path d="M76.7386252,9.20670764 C75.7828964,9.61030469 74.9210657,10.1995015 74.450477,11.0585866 L74.450477,1.52683235 L76.7386252,1.52683235 L76.7386252,9.20670764 Z M76.7386252,15.890769 L76.7386252,31.5882232 L74.450477,31.5882232 L74.450477,14.0608545 C74.9210657,14.9155467 75.7826219,15.4967814 76.7386252,15.890769 L76.7386252,15.890769 Z M81.1770945,2.74555816e-05 L77.4250148,2.74555816e-05 L76.7386252,2.74555816e-05 L74.450477,2.74555816e-05 L73.7640875,2.74555816e-05 L70.0120077,2.74555816e-05 L70.0120077,32.351763 L73.7640875,32.351763 L74.450477,32.351763 L76.7386252,32.351763 L77.4250148,32.351763 L81.1770945,32.351763 L81.1770945,15.6266463 L81.1526591,15.6266463 C80.977767,15.6236262 79.4863798,15.5849138 78.0254683,15.1728055 C76.132406,14.6396181 75.1725588,13.760765 75.1725588,12.5609561 C75.1725588,11.3584016 76.1340533,10.467468 78.0304103,9.91313976 C79.5780815,9.46094633 81.1611703,9.42662685 81.1770945,9.4263523 L81.1765454,9.39203282 L81.1770945,9.39203282 L81.1770945,2.74555816e-05 Z" id="Fill-11" fill="#703642"></path>
                            <path d="M21.3137406,26.0832967 C21.7000406,23.851158 18.2823698,16.3239357 17.166575,12.4609354 C16.0505056,8.59766048 18.1536031,6.32269098 18.1536031,6.32269098 C17.7887184,9.87489413 22.5206879,19.945876 22.5206879,22.3921684 C22.5206879,24.8387352 21.3137406,26.0832967 21.3137406,26.0832967 M23.0063772,9.40046168 C23.0011606,9.39771612 23.0011606,9.39524512 23.0011606,9.39277412 C22.7848106,9.00894509 22.5890523,8.61495749 22.4114147,8.21053678 C22.4086692,8.20806577 22.4061982,8.20559477 22.4061982,8.20284921 C21.6028478,6.3896826 21.1544982,4.38103225 21.1544982,2.26942347 C21.1544982,1.51192397 21.2110567,0.770348709 21.3247228,0.0441485753 C20.2663101,0.968852565 19.3081103,2.00667355 18.4660476,3.13454884 C16.0194808,6.42345297 14.5720225,10.4973122 14.5720225,14.9091496 C14.5720225,17.8243832 15.2056973,20.5954751 16.3415347,23.0856963 C16.5628267,23.5749548 16.8049849,24.0515837 17.0649893,24.5172304 C17.8609266,26.3199639 18.3010396,28.3162592 18.3010396,30.4149639 C18.3010396,31.0741724 18.2573852,31.7259679 18.1725475,32.3618392 C19.1765981,31.465689 20.090869,30.4693259 20.8944938,29.3897724 C23.3410607,26.1014174 24.788519,22.0248127 24.788519,17.6129753 C24.788519,14.6873085 24.1548442,11.9112746 23.0137902,9.41583681 C23.0088482,9.4108948 23.0063772,9.40540369 23.0063772,9.40046168" id="Fill-13" fill="#703642"></path>
                            <path d="M63.3132576,26.0832967 C63.6995577,23.851158 60.2818869,16.3239357 59.166092,12.4609354 C58.0500226,8.59766048 60.1531202,6.32269098 60.1531202,6.32269098 C59.7882355,9.87489413 64.520205,19.945876 64.520205,22.3921684 C64.520205,24.8387352 63.3132576,26.0832967 63.3132576,26.0832967 M65.0056197,9.40046168 C65.0006777,9.39771612 65.0006777,9.39524512 65.0006777,9.39277412 C64.7843277,9.00894509 64.5885694,8.61495749 64.4109318,8.21053678 C64.4081862,8.20806577 64.4057152,8.20559477 64.4057152,8.20284921 C63.6023649,6.3896826 63.1540153,4.38103225 63.1540153,2.26942347 C63.1540153,1.51192397 63.2108483,0.770348709 63.3239653,0.0441485753 C62.2658272,0.968852565 61.3076274,2.00667355 60.4655647,3.13454884 C58.0189978,6.42345297 56.5715396,10.4973122 56.5715396,14.9091496 C56.5715396,17.8243832 57.2052144,20.5954751 58.3410518,23.0856963 C58.5623438,23.5749548 58.804502,24.0515837 59.0645064,24.5172304 C59.8604437,26.3199639 60.3005567,28.3162592 60.3005567,30.4149639 C60.3005567,31.0741724 60.2569023,31.7259679 60.1720645,32.3618392 C61.1763897,31.465689 62.0906606,30.4693259 62.8940109,29.3897724 C65.3405778,26.1014174 66.788036,22.0248127 66.788036,17.6129753 C66.788036,14.6873085 66.1543612,11.9112746 65.0133072,9.41583681 C65.0083652,9.4108948 65.0056197,9.40540369 65.0056197,9.40046168" id="Fill-15" fill="#703642"></path>
                        </g>
                    </g>
                </g>
            </g>
        </g>
    </g>
</svg>